<svg width="167" height="24" viewBox="0 0 167 24" fill="none" xmlns="http://www.w3.org/2000/svg">
<path d="M21.9261 12.4744C21.5284 14.8466 20.7401 16.8352 19.5611 18.4403C18.3821 20.0455 16.951 21.2564 15.2678 22.0732C13.5845 22.8899 11.7841 23.2983 9.86648 23.2983C7.82102 23.2983 6.04545 22.8544 4.53977 21.9666C3.03409 21.0788 1.93679 19.7791 1.24787 18.0675C0.558949 16.3558 0.420455 14.2642 0.832386 11.7926C1.21591 9.42045 1.99716 7.42472 3.17614 5.8054C4.35511 4.18608 5.79332 2.96094 7.49077 2.12997C9.18821 1.29901 11.0028 0.883522 12.9347 0.883522C14.9659 0.883522 16.7308 1.33097 18.2294 2.22585C19.7351 3.12074 20.8288 4.43111 21.5107 6.15696C22.1996 7.88281 22.3381 9.98864 21.9261 12.4744ZM15.9602 11.7926C16.1591 10.5426 16.1733 9.49148 16.0028 8.6392C15.8324 7.77983 15.4737 7.13352 14.9268 6.70028C14.38 6.25994 13.6449 6.03977 12.7216 6.03977C11.6705 6.03977 10.7401 6.29545 9.9304 6.80682C9.12074 7.31818 8.44957 8.05327 7.9169 9.01207C7.38423 9.97088 7.01136 11.125 6.7983 12.4744C6.57102 13.7386 6.54972 14.7898 6.73438 15.6278C6.92614 16.4659 7.30256 17.0945 7.86364 17.5135C8.43182 17.9325 9.17045 18.142 10.0795 18.142C11.1165 18.142 12.0327 17.8935 12.8281 17.3963C13.6307 16.8991 14.2947 16.1783 14.8203 15.2337C15.353 14.2891 15.733 13.142 15.9602 11.7926Z" fill="#505DFF"/>
<path d="M22.9196 23L26.5417 1.18182H36.002C37.6639 1.18182 39.024 1.40554 40.0822 1.85298C41.1475 2.30043 41.9004 2.93253 42.3407 3.74929C42.7882 4.56605 42.9196 5.52841 42.7349 6.63636C42.5929 7.43182 42.2875 8.1598 41.8187 8.82031C41.3571 9.47372 40.7711 10.0277 40.0609 10.4822C39.3578 10.9297 38.573 11.2386 37.7065 11.4091L37.6639 11.6222C38.6014 11.6506 39.4181 11.8849 40.1142 12.3253C40.8102 12.7585 41.3216 13.3622 41.6483 14.1364C41.975 14.9034 42.0531 15.7983 41.8826 16.821C41.6838 18.0142 41.1973 19.076 40.4231 20.0064C39.649 20.9368 38.644 21.6683 37.4082 22.201C36.1724 22.7337 34.7662 23 33.1895 23H22.9196ZM29.6525 18.2699H32.4224C33.4025 18.2699 34.1731 18.0817 34.7342 17.7053C35.3024 17.3288 35.6397 16.7784 35.7463 16.054C35.8315 15.5426 35.7889 15.1094 35.6184 14.7543C35.448 14.3991 35.1603 14.1293 34.7555 13.9446C34.3507 13.7599 33.8429 13.6676 33.2321 13.6676H30.377L29.6525 18.2699ZM31.0162 10.0028H33.4451C33.9565 10.0028 34.4252 9.92116 34.8514 9.75781C35.2775 9.59446 35.6291 9.35653 35.9061 9.04403C36.1831 8.73153 36.3571 8.35511 36.4281 7.91477C36.5346 7.23295 36.3713 6.71449 35.938 6.35938C35.5119 6.00426 34.9366 5.8267 34.2122 5.8267H31.698L31.0162 10.0028ZM55.5723 1.18182H61.4103L58.9387 16.1392C58.6973 17.5597 58.1362 18.8097 57.2555 19.8892C56.3748 20.9616 55.2633 21.7997 53.921 22.4034C52.5787 23 51.0978 23.2983 49.4785 23.2983C48.0865 23.2983 46.8507 23.0568 45.7711 22.5739C44.6987 22.0838 43.9032 21.3168 43.3848 20.2727C42.8734 19.2216 42.7598 17.858 43.0439 16.1818H48.9672C48.8961 16.7358 48.9103 17.201 49.0098 17.5774C49.1092 17.9467 49.2939 18.2273 49.5637 18.419C49.8336 18.6037 50.1887 18.696 50.6291 18.696C51.0694 18.696 51.4565 18.6001 51.7903 18.4084C52.1241 18.2095 52.4011 17.9219 52.6213 17.5455C52.8414 17.1619 53.0012 16.6932 53.1007 16.1392L55.5723 1.18182ZM60.5953 23L64.2175 1.18182H79.9419L79.1323 5.95455H69.3311L68.7346 9.70454H77.726L76.9164 14.4773H67.9249L67.3283 18.2273H77.0868L76.2772 23H60.5953ZM101.864 9.36364H95.9407C95.9833 8.85937 95.9549 8.40483 95.8555 8C95.756 7.59517 95.5856 7.24716 95.3441 6.95597C95.1026 6.65767 94.7866 6.4304 94.396 6.27415C94.0053 6.1179 93.5401 6.03977 93.0004 6.03977C91.9634 6.03977 91.0366 6.29901 90.2198 6.81747C89.4031 7.32884 88.7248 8.06392 88.185 9.02273C87.6452 9.97443 87.2617 11.1108 87.0344 12.4318C86.8356 13.7102 86.8285 14.772 87.0131 15.6172C87.2049 16.4624 87.5778 17.0945 88.1317 17.5135C88.6928 17.9325 89.4208 18.142 90.3157 18.142C90.9123 18.142 91.4592 18.071 91.9563 17.929C92.4606 17.7869 92.908 17.5845 93.2987 17.3217C93.6964 17.0518 94.0337 16.7322 94.3107 16.3629C94.5948 15.9865 94.8114 15.571 94.9606 15.1165H100.926C100.699 16.0398 100.294 16.9844 99.712 17.9503C99.1296 18.9091 98.3768 19.7933 97.4535 20.603C96.5302 21.4055 95.4435 22.0554 94.1935 22.5526C92.9435 23.0497 91.5373 23.2983 89.9748 23.2983C87.9293 23.2983 86.1644 22.8509 84.68 21.956C83.2028 21.0611 82.1303 19.7543 81.4627 18.0355C80.8022 16.3168 80.6708 14.2216 81.0685 11.75C81.4663 9.36364 82.2511 7.36435 83.4229 5.75213C84.5948 4.13991 86.0188 2.92543 87.695 2.10866C89.3711 1.2919 91.1538 0.883522 93.043 0.883522C94.4705 0.883522 95.7489 1.07173 96.8782 1.44815C98.0146 1.82457 98.9698 2.375 99.744 3.09943C100.525 3.81676 101.1 4.70099 101.47 5.75213C101.839 6.80327 101.971 8.0071 101.864 9.36364ZM104.53 5.95455L105.34 1.18182H124.303L123.493 5.95455H116.931L114.118 23H108.28L111.093 5.95455H104.53ZM144.768 12.4744C144.37 14.8466 143.582 16.8352 142.403 18.4403C141.224 20.0455 139.793 21.2564 138.11 22.0732C136.426 22.8899 134.626 23.2983 132.708 23.2983C130.663 23.2983 128.887 22.8544 127.382 21.9666C125.876 21.0788 124.779 19.7791 124.09 18.0675C123.401 16.3558 123.262 14.2642 123.674 11.7926C124.058 9.42045 124.839 7.42472 126.018 5.8054C127.197 4.18608 128.635 2.96094 130.333 2.12997C132.03 1.29901 133.845 0.883522 135.776 0.883522C137.808 0.883522 139.573 1.33097 141.071 2.22585C142.577 3.12074 143.671 4.43111 144.352 6.15696C145.041 7.88281 145.18 9.98864 144.768 12.4744ZM138.802 11.7926C139.001 10.5426 139.015 9.49148 138.845 8.6392C138.674 7.77983 138.316 7.13352 137.769 6.70028C137.222 6.25994 136.487 6.03977 135.563 6.03977C134.512 6.03977 133.582 6.29545 132.772 6.80682C131.963 7.31818 131.291 8.05327 130.759 9.01207C130.226 9.97088 129.853 11.125 129.64 12.4744C129.413 13.7386 129.392 14.7898 129.576 15.6278C129.768 16.4659 130.144 17.0945 130.705 17.5135C131.274 17.9325 132.012 18.142 132.921 18.142C133.958 18.142 134.874 17.8935 135.67 17.3963C136.472 16.8991 137.137 16.1783 137.662 15.2337C138.195 14.2891 138.575 13.142 138.802 11.7926ZM145.761 23L149.384 1.18182H158.801C160.42 1.18182 161.788 1.47656 162.903 2.06605C164.018 2.65554 164.82 3.50426 165.31 4.61222C165.8 5.72017 165.918 7.04829 165.662 8.59659C165.406 10.1591 164.842 11.4766 163.968 12.549C163.102 13.6143 161.997 14.424 160.655 14.978C159.32 15.5249 157.821 15.7983 156.159 15.7983H150.534L151.301 11.196H155.733C156.429 11.196 157.04 11.1108 157.565 10.9403C158.091 10.7628 158.517 10.4858 158.844 10.1094C159.17 9.72585 159.384 9.22159 159.483 8.59659C159.582 7.97159 159.533 7.46378 159.334 7.07315C159.135 6.67543 158.805 6.38423 158.343 6.19957C157.881 6.00781 157.31 5.91193 156.628 5.91193H154.54L151.685 23H145.761ZM160.207 12.9858L164 23H157.565L153.901 12.9858H160.207Z" fill="white"/>
</svg>
